<svg width="391" height="237" fill="none" xmlns="http://www.w3.org/2000/svg"><path d="M391 217.05H0V237h391v-19.95Z" fill="#49194F"/><path d="m335.942 42.204-32.687 41.54 14.06-5.457-16.38 27.096 35.645-40.23-15.703 3.798 15.065-26.747Z" fill="#fff"/><path d="m336.145 44.51-32.687 41.54 14.06-5.458-16.38 27.097 35.645-40.231-15.703 3.8 15.065-26.748Z" fill="#F0A74D"/><path d="m356.944 60.603-4.55 14.693 17.103 5.3 4.55-14.693-17.103-5.3Z" fill="#fff"/><path d="m352.394 75.286-13.624 43.992c-5.732 18.508-24.098 29.318-40.942 24.098l-5.298 17.109c26.275 8.142 54.692-7.967 63.344-35.908l13.624-43.992-17.104-5.299Z" fill="#fff"/><path d="m348.904 74.205-13.624 43.992c-5.732 18.508-24.098 29.317-40.942 24.098l-5.298 17.109c26.276 8.142 54.691-7.967 63.344-35.908l13.624-43.992-17.104-5.3Z" fill="#F0A74D"/><path d="M297.828 143.378c-16.845-5.22-25.886-24.523-20.155-43.031l13.624-43.992-17.103-5.3-13.623 43.992c-8.653 27.941 5.684 57.297 31.959 65.438l5.298-17.107Z" fill="#fff"/><path d="M294.336 142.296c-16.844-5.219-25.886-24.522-20.154-43.03l13.623-43.992-17.104-5.299-13.623 43.992c-8.653 27.941 5.684 57.297 31.959 65.438l5.299-17.109Z" fill="#C7A6CC"/><path d="m278.744 36.369-4.55 14.693 17.102 5.3 4.551-14.693-17.103-5.3Z" fill="#fff"/><path d="m291.975 57.643-19.069-5.908 5.16-16.66 19.068 5.91-5.159 16.658Zm-16.494-7.266 15.139 4.69 3.94-12.725-15.137-4.69-3.942 12.725ZM370.175 81.874l-19.068-5.91 5.159-16.658 19.069 5.908-5.16 16.66Zm-16.493-7.265 15.137 4.69 3.942-12.728-15.138-4.689-3.941 12.727Z" fill="#49194F"/><path d="M306.518 163.64c-4.802 0-9.606-.719-14.293-2.171l-.982-.305 5.908-19.075.982.305c16.299 5.046 34.09-5.453 39.655-23.42l13.929-44.975 19.068 5.909-13.927 44.974c-4.262 13.765-13.333 25.156-25.539 32.075-7.814 4.431-16.303 6.683-24.801 6.683Zm-12.698-3.843c12.15 3.474 25.065 1.844 36.482-4.629 11.749-6.66 20.482-17.632 24.589-30.894l13.318-43.009-15.137-4.69-13.32 43.009c-5.788 18.689-24.132 29.737-41.242 25.066l-4.69 15.147Z" fill="#49194F"/><path d="m293.209 161.774-.982-.305c-12.983-4.023-23.53-13.193-29.698-25.826-6.159-12.61-7.203-27.136-2.941-40.901l13.928-44.975 19.069 5.908-13.927 44.976c-5.564 17.965 3.173 36.691 19.476 41.743l.982.305-5.907 19.075Zm-18.338-109.43-13.319 43.008c-4.106 13.262-3.104 27.251 2.824 39.388 5.762 11.796 15.493 20.443 27.478 24.447l4.692-15.147c-16.756-5.819-25.643-25.309-19.855-43.996l13.319-43.01-15.139-4.69ZM301.705 106.065l-1.65-1.214 14.818-24.512-14.754 5.727 35.015-44.498 1.705 1.142-13.904 24.684 16.589-4.013-37.819 42.684Zm18.053-29.83-12.085 19.992 25.963-29.304-14.817 3.586 9.67-17.168-22.098 28.084 13.367-5.19Z" fill="#49194F"/><path d="m151.484 31.672-23.919 7.004 7.057 35.063 24.97-5.86c-.699-2.477-1.398-4.954-2.099-7.43l-17.199 4.986-1.971-10.02c2.937-.58 5.873-1.162 8.808-1.743l-1.145-5.397c-2.901.81-5.802 1.617-8.704 2.425l-1.294-8.698 16.607-4.663-1.111-5.667ZM158.226 44.901l17.872-4.835.738 3.618-18.119 4.542-.491-3.325ZM159.434 51.25l17.871-4.833.738 3.617-18.118 4.542-.491-3.326ZM186.498 58.942l-2.423-35.225 4.553-2.09 8.071 9.155 1.277-12.338 4.004-1.746 20.041 30.81-7.159 2.941-10.488-19.08-4.799 9.547c-2.551-1.725-5.101-3.448-7.652-5.17 1.116 6.818 2.23 13.637 3.345 20.455l-8.77 2.741ZM232.065 9.796c-1.009.103-8.878 1.027-12.695 7.682-2.002 3.491-1.913 6.856-1.857 8.267.199 5.03 2.768 11.348 8.883 14.694 5.539 3.03 12.357 2.73 17.687-.764-.744-1.778-1.487-3.556-2.232-5.333-1.16.555-4.341 1.883-8.289 1.112-1.126-.22-6.267-1.225-8.474-5.961-1.58-3.39-1.391-8.121 1.218-10.57 2.433-2.281 6.936-2.55 7.214-2.563h.001l-1.456-6.564ZM236.421 5.444l-1.632.465s-.93-3.783 1.915-4.682c2.843-.9 4.818 1.526 5.426 3.231.607 1.704-2.245 7.936-2.245 7.936l4.779-1.362.682 2.39-7.235 2.063-.806-2.198c.173-.774.481-1.96 1.023-3.35 1.066-2.728 2.029-3.659 1.643-4.964-.308-1.04-1.406-2.106-2.327-1.855-.706.191-1.241 1.146-1.223 2.326Z" fill="#fff"/><path d="m149.587 33.731-23.919 7.005 7.057 35.063 24.97-5.861c-.699-2.476-1.398-4.953-2.099-7.429l-17.199 4.986-1.971-10.021c2.937-.581 5.873-1.163 8.808-1.742l-1.145-5.397-8.704 2.425-1.294-8.698a68676.1 68676.1 0 0 0 16.607-4.663l-1.111-5.668ZM158.063 46.9l17.873-4.833.738 3.616-18.119 4.542-.492-3.325ZM159.272 53.25l17.872-4.834.737 3.617-18.119 4.542-.49-3.325ZM185.346 61.724 182.923 26.5l4.553-2.09 8.071 9.155 1.277-12.338 4.004-1.746 20.041 30.81-7.159 2.941-10.488-19.08-4.799 9.547-7.652-5.17c1.116 6.818 2.23 13.637 3.345 20.456l-8.77 2.74ZM230.788 12.187c-1.01.102-8.878 1.028-12.695 7.683-2.003 3.491-1.913 6.856-1.857 8.267.199 5.03 2.767 11.348 8.882 14.694 5.539 3.03 12.356 2.731 17.688-.764l-2.232-5.334c-1.161.555-4.342 1.884-8.289 1.113-1.126-.22-6.267-1.225-8.474-5.961-1.58-3.39-1.392-8.121 1.218-10.57 2.432-2.282 6.936-2.55 7.213-2.563l-1.454-6.565ZM235.396 6.568l-1.632.465s-.929-3.783 1.915-4.683c2.845-.9 4.818 1.527 5.427 3.232.607 1.703-2.246 7.935-2.246 7.935l4.78-1.362.681 2.391-7.234 2.063-.806-2.199c.173-.773.48-1.959 1.023-3.35 1.066-2.728 2.029-3.658 1.643-4.963-.308-1.04-1.407-2.106-2.327-1.855-.706.191-1.242 1.146-1.224 2.326Z" fill="#F0A74D"/><path d="m133.822 74.983-7.452-37.03 25.906-7.585 1.513 7.706-16.648 4.674.988 6.649 8.637-2.406 1.589 7.489-8.823 1.746 1.556 7.91 17.114-4.963 2.672 9.462-27.052 6.347Zm-5.062-35.584 6.66 33.095 22.887-5.371-1.524-5.396-17.283 5.01-2.386-12.132 8.794-1.74-.702-3.304-8.771 2.443-1.599-10.748 16.566-4.65-.712-3.63-21.93 6.423ZM157.865 49.5l-.79-5.355 19.813-5.358 1.154 5.655-20.177 5.058Zm1.512-3.845.191 1.296 16.062-4.027-.321-1.577-15.932 4.308ZM159.072 55.85l-.789-5.354 19.812-5.36 1.153 5.656-20.176 5.058Zm1.513-3.844.191 1.295 16.061-4.027-.323-1.578-15.929 4.31ZM185.561 60.313l-2.56-37.235 5.894-2.705 7.023 7.966 1.097-10.6 5.352-2.334 21.193 32.582-9.157 3.763-9.988-18.172-4.447 8.845-6.645-4.49 3.104 18.981-10.866 3.4Zm-.41-35.957 2.284 33.214 6.672-2.087-3.585-21.927 8.659 5.85 5.152-10.25 10.988 19.99 5.16-2.12-18.89-29.038-2.655 1.158-1.457 14.077-9.117-10.341-3.211 1.474ZM234.573 43.557a18.029 18.029 0 0 1-8.671-2.215c-6.632-3.63-9.213-10.416-9.416-15.557-.054-1.367-.198-5 1.993-8.82 3.957-6.897 11.926-8.035 13.483-8.193l.911-.092 1.919 8.646-1.217.062c-.044.001-4.385.243-6.563 2.286-2.335 2.191-2.336 6.491-.989 9.384 1.299 2.787 3.976 4.65 7.74 5.385 3.387.661 6.245-.361 7.647-1.03l.976-.466 2.979 7.12-.716.468a18.392 18.392 0 0 1-10.076 3.023Zm-3.307-32.614c-2.409.402-8.037 1.875-11.003 7.048-1.896 3.304-1.769 6.506-1.721 7.713.181 4.578 2.469 10.614 8.349 13.832 4.972 2.72 10.992 2.6 15.907-.275l-1.492-3.564c-1.809.704-4.655 1.407-7.939.766-4.372-.855-7.643-3.177-9.209-6.536-1.635-3.506-1.683-8.819 1.446-11.755 1.956-1.834 4.975-2.49 6.662-2.722l-1-4.507ZM237.475 16.735l-1.239-3.38.066-.295c.265-1.183.625-2.36 1.069-3.5.371-.949.732-1.692 1.02-2.29.548-1.13.731-1.545.594-2.008-.202-.687-.888-1.193-1.07-1.154-.132.035-.48.497-.466 1.319l.013.79-3.416.975-.256-1.039c-.401-1.63-.373-4.966 2.603-5.909 3.484-1.106 5.964 1.785 6.707 3.866.5 1.403-.535 4.497-1.418 6.7l3.689-1.053 1.246 4.372-9.142 2.606Zm1.127-2.906.146.403 5.326-1.518-.117-.412-5.355 1.527Zm.125-11.637c1.031.369 1.91 1.399 2.231 2.488.37 1.252-.108 2.24-.715 3.49-.287.594-.614 1.267-.955 2.14-.369.946-.674 1.92-.909 2.901l.57-1.246c1.427-3.117 2.461-6.466 2.213-7.162-.254-.713-1.083-2.17-2.435-2.61Zm-1.242-.096c-.153.025-.309.06-.471.111-.723.23-1.074.774-1.234 1.365.349-.728.908-1.261 1.592-1.45.039-.01.076-.018.113-.026ZM48.042 184.394a1.029 1.029 0 0 1-1.029-1.029v-75.729a1.028 1.028 0 1 1 2.058 0v75.729a1.028 1.028 0 0 1-1.03 1.029ZM70.4 184.394a1.029 1.029 0 0 1-1.03-1.029v-75.729a1.028 1.028 0 1 1 2.058 0v75.729a1.03 1.03 0 0 1-1.028 1.029ZM92.756 184.394a1.029 1.029 0 0 1-1.029-1.029v-75.729a1.028 1.028 0 1 1 2.057 0v75.729c0 .568-.46 1.029-1.028 1.029ZM115.112 184.394a1.029 1.029 0 0 1-1.029-1.029v-75.729a1.028 1.028 0 1 1 2.058 0v75.729c0 .568-.46 1.029-1.029 1.029ZM166.541 169.675a1.03 1.03 0 0 1-.93-.585l-29.071-61.011a1.03 1.03 0 0 1 1.858-.887l29.072 61.01a1.031 1.031 0 0 1-.929 1.473Z" fill="#49194F"/><path d="M55.383 190.709c4.055-4.056 4.055-10.634 0-14.69-4.056-4.057-10.631-4.057-14.687 0-4.055 4.057-4.055 10.634 0 14.69 4.056 4.057 10.631 4.057 14.687 0Z" fill="#fff"/><path d="M78.038 190.709c4.056-4.056 4.056-10.634 0-14.69-4.055-4.057-10.63-4.057-14.686 0-4.056 4.056-4.056 10.634 0 14.69 4.055 4.057 10.63 4.057 14.686 0ZM102.885 185.73c1.303-5.587-2.168-11.173-7.754-12.477-5.586-1.303-11.17 2.17-12.473 7.757-1.303 5.587 2.168 11.174 7.754 12.477 5.586 1.303 11.17-2.169 12.473-7.757ZM122.539 190.709c4.055-4.057 4.055-10.634 0-14.691-4.056-4.056-10.631-4.056-14.687 0-4.055 4.057-4.055 10.634 0 14.691 4.056 4.057 10.631 4.057 14.687 0ZM176.617 171.173c1.387-5.567-2-11.204-7.565-12.591-5.566-1.388-11.201 2.001-12.588 7.567-1.387 5.567 2 11.204 7.565 12.592 5.566 1.387 11.201-2.001 12.588-7.568Z" fill="#fff"/><path d="M54.04 193.737c4.055-4.057 4.055-10.634 0-14.691-4.056-4.056-10.631-4.056-14.687 0-4.055 4.057-4.055 10.634 0 14.691 4.056 4.057 10.631 4.057 14.687 0Z" fill="#C7A6CC"/><path d="M76.695 193.737c4.056-4.057 4.056-10.634 0-14.691s-10.631-4.057-14.686 0c-4.056 4.057-4.056 10.634 0 14.691 4.055 4.057 10.63 4.057 14.686 0ZM101.541 188.751c1.303-5.587-2.169-11.174-7.755-12.477-5.585-1.304-11.17 2.169-12.473 7.757-1.303 5.587 2.168 11.173 7.754 12.477 5.586 1.303 11.171-2.17 12.474-7.757ZM121.195 193.738c4.055-4.057 4.055-10.634 0-14.691-4.056-4.057-10.631-4.057-14.687 0-4.055 4.057-4.055 10.634 0 14.691 4.056 4.056 10.631 4.056 14.687 0ZM172.537 179.018c4.055-4.057 4.055-10.634 0-14.691-4.056-4.056-10.631-4.056-14.686 0-4.056 4.057-4.056 10.634 0 14.691 4.055 4.057 10.63 4.057 14.686 0Z" fill="#C7A6CC"/><path d="M152.006 103.272h-4.243V212.73h4.243V103.272ZM30.214 212.73h4.242V103.272h-4.242V212.73Z" fill="#49194F"/><path d="M25.766 103.272v8.726h130.391v-8.726H25.766Z" fill="#49194F"/><path d="M159.913 202.411H20.587v14.639h139.326v-14.639Z" fill="#fff"/><path d="M156.156 205.41H16.831v14.639h139.325V205.41Z" fill="#F0A74D"/><path d="M159.913 218.079H20.587c-.569 0-1.029-.46-1.029-1.029v-14.639c0-.569.46-1.029 1.03-1.029h139.325c.568 0 1.028.46 1.028 1.029v14.639c0 .569-.461 1.029-1.028 1.029Zm-138.297-2.058h137.268V203.44H21.616v12.581ZM48.042 194.782c-6.293 0-11.412-5.122-11.412-11.417 0-6.296 5.12-11.417 11.412-11.417 6.293 0 11.414 5.121 11.414 11.417 0 6.295-5.12 11.417-11.414 11.417Zm0-20.775c-5.159 0-9.355 4.199-9.355 9.359s4.196 9.359 9.355 9.359c5.159 0 9.356-4.199 9.356-9.359 0-5.162-4.197-9.359-9.356-9.359Z" fill="#49194F"/><path d="M70.697 194.782c-6.293 0-11.413-5.122-11.413-11.417 0-6.296 5.12-11.417 11.413-11.417 6.294 0 11.414 5.121 11.414 11.417 0 6.295-5.12 11.417-11.414 11.417Zm0-20.775c-5.158 0-9.354 4.199-9.354 9.359s4.196 9.359 9.354 9.359c5.16 0 9.357-4.199 9.357-9.359 0-5.162-4.198-9.359-9.357-9.359Z" fill="#49194F"/><path d="M92.756 194.782c-6.293 0-11.412-5.122-11.412-11.417 0-6.296 5.12-11.417 11.412-11.417 6.293 0 11.414 5.121 11.414 11.417 0 6.295-5.12 11.417-11.414 11.417Zm0-20.775c-5.159 0-9.355 4.199-9.355 9.359s4.196 9.359 9.355 9.359c5.159 0 9.356-4.199 9.356-9.359-.001-5.162-4.197-9.359-9.356-9.359Z" fill="#49194F"/><path d="M115.199 194.782c-6.293 0-11.414-5.122-11.414-11.417 0-6.296 5.121-11.417 11.414-11.417 6.293 0 11.414 5.121 11.414 11.417 0 6.295-5.121 11.417-11.414 11.417Zm0-20.775c-5.159 0-9.356 4.199-9.356 9.359s4.197 9.359 9.356 9.359 9.356-4.199 9.356-9.359c-.001-5.162-4.197-9.359-9.356-9.359ZM166.54 180.062c-6.294 0-11.413-5.122-11.413-11.417s5.121-11.417 11.413-11.417c6.293 0 11.413 5.122 11.413 11.417s-5.119 11.417-11.413 11.417Zm0-20.775c-5.159 0-9.355 4.199-9.355 9.359s4.196 9.359 9.355 9.359c5.158 0 9.356-4.199 9.356-9.359s-4.198-9.359-9.356-9.359Z" fill="#49194F"/><path d="M376.806 164.353H232.645v22.468h144.161v-22.468Z" fill="#fff"/><path d="M373.015 167.671H228.854v22.468h144.161v-22.468Z" fill="#F0A74D"/><path d="M377.835 187.85H231.616v-24.526h146.219v24.526Zm-144.162-2.058h142.104v-20.41H233.673v20.41Z" fill="#49194F"/><path d="M256.791 164.353h-2.058v22.468h2.058v-22.468ZM264.514 164.353h-2.057v22.468h2.057v-22.468ZM354.697 164.353h-2.057v22.468h2.057v-22.468ZM346.975 164.353h-2.057v22.468h2.057v-22.468Z" fill="#49194F"/><path d="M371.804 186.821H218.959v31.05h152.845v-31.05Z" fill="#fff"/><path d="M368.041 189.264H214.94v33.193h153.101v-33.193Z" fill="#C7A6CC"/><path d="M347.274 186.821h-8.188v31.05h8.188v-31.05ZM251.657 186.832h-8.188v31.05h8.188v-31.05Z" fill="#F0A74D"/><path d="M372.833 218.9H217.93v-33.108h154.903V218.9Zm-152.845-2.058h150.787V187.85H219.988v28.992Z" fill="#49194F"/><path d="M244.498 186.821h-2.058v31.05h2.058v-31.05ZM252.686 186.821h-2.057v31.05h2.057v-31.05ZM348.302 186.821h-2.057v31.05h2.057v-31.05ZM340.115 186.821h-2.058v31.05h2.058v-31.05Z" fill="#49194F"/><path d="M291.491 194.595h-37.535v20.424h37.535v-20.424Z" fill="#fff"/><path d="M295.365 213.39h-40.632v-22.483h40.632v22.483Zm-38.573-2.058h36.515v-18.365h-36.515v18.365Z" fill="#49194F"/><path d="M197.261 118.051c1.566 0 3.026-1.301 4.258-3.544a2.43 2.43 0 0 1-.705-.392c-.923 1.499-1.966 2.345-3.075 2.345-3.726 0-6.746-9.573-6.746-21.382 0-11.81 3.02-21.382 6.746-21.382 3.728 0 6.748 9.572 6.748 21.382 0 5.706-.705 10.891-1.857 14.726.246.029.478.096.695.193 1.192-4.013 1.912-9.224 1.912-14.919 0-12.69-3.57-22.977-7.977-22.977-4.405 0-7.975 10.287-7.975 22.977.002 12.687 3.571 22.973 7.976 22.973Z" fill="#C7A6CC"/><path d="M200.614 112.216c0-.95.772-1.721 1.721-1.721.026 0 .052 0 .078.004.251.009.487.074.7.184.559.282.943.86.943 1.532a1.72 1.72 0 0 1-2.879 1.268 1.7 1.7 0 0 1-.563-1.267Z" fill="#49194F"/><path d="M217.155 83.589c-.783-1.356-2.639-1.97-5.199-1.917.051.27.053.543.014.806 1.759.05 3.013.532 3.568 1.493 1.862 3.227-4.916 10.63-15.139 16.534-10.225 5.905-20.022 8.075-21.885 4.847-1.864-3.23 4.912-10.632 15.137-16.537 4.941-2.854 9.782-4.835 13.678-5.754a2.3 2.3 0 0 1-.18-.7c-4.071.975-8.943 2.957-13.873 5.804-10.987 6.345-18.108 14.581-15.903 18.399 2.202 3.816 12.893 1.766 23.879-4.58 10.984-6.344 18.104-14.58 15.903-18.395Z" fill="#C7A6CC"/><path d="M210.426 83.602a1.72 1.72 0 0 1-2.35-.629.447.447 0 0 1-.036-.071 1.711 1.711 0 0 1 .665-2.28 1.72 1.72 0 0 1 1.721 2.98Z" fill="#49194F"/><path d="M177.372 83.587c-.783 1.356-.388 3.271.939 5.461.207-.178.444-.318.692-.415-.836-1.548-1.046-2.875-.493-3.837 1.863-3.227 11.663-1.056 21.885 4.847 10.226 5.905 17.003 13.308 15.14 16.535-1.863 3.23-11.661 1.061-21.886-4.844-4.941-2.854-9.076-6.056-11.82-8.972a2.36 2.36 0 0 1-.515.506c2.878 3.04 7.03 6.269 11.96 9.116 10.988 6.346 21.678 8.395 23.881 4.577 2.201-3.815-4.919-12.051-15.905-18.396-10.987-6.343-21.677-8.395-23.878-4.578Z" fill="#C7A6CC"/><path d="M197.261 118.051c1.566 0 3.026-1.301 4.258-3.544a2.43 2.43 0 0 1-.705-.392c-.923 1.499-1.966 2.345-3.075 2.345-3.726 0-6.746-9.573-6.746-21.382 0-11.81 3.02-21.382 6.746-21.382 3.728 0 6.748 9.572 6.748 21.382 0 5.706-.705 10.891-1.857 14.726.246.029.478.096.695.193 1.192-4.013 1.912-9.224 1.912-14.919 0-12.69-3.57-22.977-7.977-22.977-4.405 0-7.975 10.287-7.975 22.977.002 12.687 3.571 22.973 7.976 22.973Z" fill="#C7A6CC"/><path d="M217.155 83.589c-.783-1.356-2.639-1.97-5.199-1.917.051.27.053.543.014.806 1.759.05 3.013.532 3.568 1.493 1.862 3.227-4.916 10.63-15.139 16.534-10.225 5.905-20.022 8.075-21.885 4.847-1.864-3.23 4.912-10.632 15.137-16.537 4.941-2.854 9.782-4.835 13.678-5.754a2.3 2.3 0 0 1-.18-.7c-4.071.975-8.943 2.957-13.873 5.804-10.987 6.345-18.108 14.581-15.903 18.399 2.202 3.816 12.893 1.766 23.879-4.58 10.984-6.344 18.104-14.58 15.903-18.395Z" fill="#C7A6CC"/><path d="M177.372 83.587c-.783 1.356-.388 3.271.939 5.461.207-.178.444-.318.692-.415-.836-1.548-1.046-2.875-.493-3.837 1.863-3.227 11.663-1.056 21.885 4.847 10.226 5.905 17.003 13.308 15.14 16.535-1.863 3.23-11.661 1.061-21.886-4.844-4.941-2.854-9.076-6.056-11.82-8.972a2.36 2.36 0 0 1-.515.506c2.878 3.04 7.03 6.269 11.96 9.116 10.988 6.346 21.678 8.395 23.881 4.577 2.201-3.815-4.919-12.051-15.905-18.396-10.987-6.343-21.677-8.395-23.878-4.578Z" fill="#C7A6CC"/><path d="M180.746 89.408a1.72 1.72 0 0 1 .629 2.351c-.014.023-.026.045-.044.066a1.638 1.638 0 0 1-.51.514 1.708 1.708 0 0 1-1.797.05 1.72 1.72 0 0 1 .343-3.128 1.705 1.705 0 0 1 1.379.147ZM200.983 95.249a3.637 3.637 0 1 1-7.274 0 3.638 3.638 0 1 1 7.274 0Z" fill="#49194F"/><path d="M242.482 212.736v6.36s-.116 4.972 2.89 5.087c3.005.116 4.97-11.447 4.97-11.447h-7.86ZM185.504 201.543l-4.083 4.997c-1.793 1.145-2.055 3.477-.984 4.709.857.985 2.547 1.246 3.95.43l5.496-4.981a4549.776 4549.776 0 0 0-4.379-5.155Z" fill="#fff"/><path d="m245.414 225.214-.081-.002c-3.172-.122-3.931-3.917-3.879-6.14v-6.336c0-.569.46-1.029 1.029-1.029h7.86a1.03 1.03 0 0 1 1.014 1.202c-.632 3.715-2.47 12.305-5.943 12.305Zm-1.904-11.449v5.331c-.001.061-.026 3.985 1.901 4.059h.011c.909 0 2.63-4 3.685-9.39h-5.597ZM182.609 213.189c-1.136 0-2.226-.434-2.948-1.265-.703-.808-1.01-1.939-.842-3.102a4.513 4.513 0 0 1 1.902-3.055l3.986-4.876c.194-.236.482-.375.787-.377.29-.018.596.13.794.362l4.38 5.154c.36.423.319 1.056-.093 1.429l-5.496 4.981a1.026 1.026 0 0 1-.173.127 4.582 4.582 0 0 1-2.297.622Zm2.91-10.04-3.302 4.04a1.044 1.044 0 0 1-.243.216 2.447 2.447 0 0 0-1.118 1.709c-.081.562.052 1.108.357 1.458.486.558 1.567.8 2.57.264l4.671-4.233-2.935-3.454Z" fill="#49194F"/><path d="M242.484 219.379s-1.556 3.333-1.497 5.38c.059 2.047.995 1.754.995 1.754l17.806.293s1.843-1.561.556-2.623c-1.287-1.062-11.451-5.384-11.451-5.384s-2.174 1.631-3.928 1.455c-1.755-.173-2.481-.875-2.481-.875ZM247.402 138.267s12.03 36.261 12.376 39.069c.348 2.808-9.062 37.026-9.062 37.026h-9.226l4.85-36.261-20.167-39.836 21.229.002Z" fill="#fff"/><path d="M245.157 138.267s12.031 36.261 12.377 39.069c.347 2.808-9.062 37.026-9.062 37.026h-9.226l4.85-36.261-20.167-39.836 21.228.002Z" fill="#F0A74D"/><path d="M250.716 215.393h-9.226a1.028 1.028 0 0 1-1.02-1.165l4.807-35.944-20.023-39.549a1.032 1.032 0 0 1 .918-1.495H247.4c.444 0 .837.285.977.705 1.235 3.722 12.072 36.439 12.422 39.267.354 2.866-7.512 31.68-9.091 37.427a1.031 1.031 0 0 1-.992.754Zm-8.05-2.06h7.266c3.605-13.15 9.026-33.903 8.824-35.872-.241-1.952-7.278-23.621-12.097-38.164h-18.812l19.41 38.34c.094.185.13.396.102.602l-4.693 35.094Z" fill="#49194F"/><path d="m252.212 83.366-13.961 10.725 10.387 4.85 7.912-10.213-4.338-5.362Z" fill="#fff"/><path d="M248.636 99.972c-.147 0-.295-.031-.435-.096l-10.387-4.851a1.03 1.03 0 0 1-.191-1.75l13.961-10.725a1.026 1.026 0 0 1 1.425.169l4.341 5.362c.3.371.306.9.013 1.278l-7.914 10.215a1.028 1.028 0 0 1-.813.398Zm-8.415-6.097 8.106 3.788 6.91-8.92-3.196-3.95-11.82 9.082Z" fill="#49194F"/><path d="M181.493 206.149s-3.678.003-5.506.924c-1.83.92-1.168 1.644-1.168 1.644l7.278 16.257s2.194 1.009 2.611-.607c.418-1.615.025-12.656.025-12.656s-2.398-1.279-2.982-2.943c-.585-1.665-.258-2.619-.258-2.619Z" fill="#fff"/><path d="M242.484 221.361s-1.556 3.333-1.497 5.382c.059 2.047.995 1.754.995 1.754l17.806.293s1.843-1.561.556-2.623c-1.287-1.062-11.451-5.384-11.451-5.384s-2.174 1.631-3.928 1.455c-1.755-.176-2.481-.877-2.481-.877ZM180.172 208.13s-3.678.003-5.506.924c-1.83.92-1.168 1.644-1.168 1.644l7.278 16.258s2.194 1.008 2.611-.608c.418-1.615.025-12.656.025-12.656s-2.398-1.279-2.982-2.943c-.586-1.664-.258-2.619-.258-2.619Z" fill="#F0A74D"/><path d="M259.788 227.836h-.016l-17.705-.291a1.617 1.617 0 0 1-1.14-.291c-.615-.439-.931-1.245-.965-2.465-.064-2.226 1.423-5.48 1.593-5.845.14-.3.419-.516.744-.577.319-.057.647.036.885.256.048.04.599.481 1.884.609 1.096.107 2.727-.896 3.21-1.256a1.02 1.02 0 0 1 1.018-.122c1.721.73 10.37 4.434 11.703 5.535.682.563.827 1.219.831 1.669.009 1.294-1.145 2.337-1.376 2.534a1.032 1.032 0 0 1-.666.244Zm-17.673-2.349 17.258.283c.245-.282.419-.594.399-.706 0 0-.016-.032-.083-.087-.816-.673-6.771-3.336-10.68-5.009-.839.539-2.555 1.469-4.145 1.312a6.91 6.91 0 0 1-1.879-.442c-.454 1.156-.999 2.818-.967 3.892.009.393.057.628.097.757ZM183.438 226.314c-.831 0-1.581-.317-1.772-.407a1.02 1.02 0 0 1-.508-.515l-7.237-16.165c-.18-.28-.306-.69-.22-1.157.138-.743.734-1.371 1.823-1.919 1.99-1 5.567-1.032 5.969-1.032h.002a1.032 1.032 0 0 1 .98 1.341c-.016.059-.181.747.246 1.966.366 1.041 1.966 2.091 2.497 2.375.323.173.53.506.543.871.066 1.869.375 11.276-.058 12.951-.221.854-.753 1.266-1.161 1.459-.357.17-.738.232-1.104.232Zm-.579-2.157c.358.104.714.13.807.062 0 0 .022-.028.044-.112.265-1.024.154-7.548.012-11.799-.843-.533-2.413-1.689-2.943-3.202a6.824 6.824 0 0 1-.395-1.889c-1.239.078-2.974.288-3.934.772-.352.177-.543.32-.644.409l7.053 15.759Z" fill="#49194F"/><path d="M243.531 138.522s-21.954 40.092-23.485 42.135c-1.532 2.043-31.4 27.578-31.4 27.578l-5.871-6.129 26.294-26.302 11.488-39.325 22.974 2.043Z" fill="#fff"/><path d="M240.562 138.522a672.485 672.485 0 0 0-12.159 22.924c-4.926 9.746-6.682 13.833-11.327 19.211-1.958 2.268-2.392 2.406-12.624 11.19-10.363 8.899-18.786 16.376-18.775 16.388.001.003.251-.207 1.632-1.397-2.16-2.299-4.319-4.596-6.476-6.894l25.266-24.14 15.442-35.86 19.021-1.422Z" fill="#F0A74D"/><path d="M188.646 209.264c-.272 0-.542-.106-.743-.317l-5.871-6.129a1.029 1.029 0 0 1 .015-1.44l26.107-26.115 11.414-39.072a1.022 1.022 0 0 1 1.078-.737l22.976 2.043a1.032 1.032 0 0 1 .812 1.521c-.899 1.639-22.008 40.178-23.565 42.256-1.555 2.074-28.489 25.121-31.555 27.743a1.019 1.019 0 0 1-.668.247Zm-4.432-7.143 4.501 4.7c11.967-10.238 29.455-25.378 30.507-26.781 1.173-1.565 16.079-28.642 22.651-40.631l-20.566-1.829-11.251 38.514a1.046 1.046 0 0 1-.259.44l-25.583 25.587ZM247.797 87.364c-2.375-.359-3.563-.537-4.098-1.206-.756-.941-.053-1.645-.857-3.133-.749-1.383-1.596-1.217-1.973-2.319-.588-1.721.96-3.645 1.221-3.968 1.129-1.401 2.606-1.894 3.266-2.069.191-.7 1.58-5.638 5.319-7.064a7.805 7.805 0 0 1 1.977-.492c1.83-.197 2.598.468 5.247 1.023 2.358.495 2.309.095 3.633.591 1.044.392 2.825 1.058 3.585 2.661.71 1.5-.088 2.519.954 3.85.44.562.988.897.903 1.38-.099.563-.974.843-1.08.875-1.835.562-3.041-1.92-5.553-2.549-3.01-.754-7.062 1.356-7.98 4.019-.523 1.515-.452 3.142-.391 4.719.031.802.064 1.606.022 2.409-.024.44-.1.708-.265.883-.293.31-.736.338-1 .347-1.731.062-2.595.093-2.93.043Z" fill="#49194F"/><path d="M242.626 90.729a19.27 19.27 0 0 0-5.09 1.505c-1.833.834-6.475 3.306-10.417 10.519-6.766 12.38-1.558 20.596-8.439 36.79a58.672 58.672 0 0 1-2.656 5.449c5.196 1.955 14.214 4.457 25.077 2.866a48.284 48.284 0 0 0 9.825-2.52c.373-8.715 1.406-15.57 2.318-20.339.826-4.313 2.036-9.507 1.837-16.79a56.895 56.895 0 0 0-.678-7.337l-3.687-4.613c-1.235 1.052-2.272 1.134-2.71 1.13-2.349-.022-4.783-2.664-5.38-6.66Z" fill="#fff"/><path d="M239.959 91.153c-1.231.187-3.06.581-5.09 1.506-1.833.834-6.475 3.306-10.417 10.518-6.766 12.381-1.558 20.597-8.439 36.791a58.502 58.502 0 0 1-2.656 5.448c5.196 1.955 14.214 4.457 25.077 2.866a48.27 48.27 0 0 0 9.825-2.519c.373-8.715 1.406-15.571 2.318-20.339.826-4.313 2.036-9.508 1.837-16.791a57.222 57.222 0 0 0-.678-7.336l-3.687-4.614c-1.235 1.052-2.272 1.135-2.71 1.13-2.348-.02-4.783-2.663-5.38-6.66Z" fill="#C7A6CC"/><path d="M234.209 149.386c-6.204 0-12.507-1.159-18.548-3.431a1.032 1.032 0 0 1-.537-1.462 57.308 57.308 0 0 0 2.61-5.354c3.35-7.883 3.77-13.728 4.175-19.381.408-5.694.794-11.071 4.309-17.5 2.857-5.227 6.624-9.018 10.895-10.96a20.269 20.269 0 0 1 5.359-1.586 1.03 1.03 0 0 1 1.173.864c.538 3.6 2.645 5.768 4.372 5.784.458.02 1.167-.145 2.032-.885.212-.18.491-.265.765-.241.278.026.533.163.706.382l3.687 4.613c.111.139.184.305.213.481.388 2.462.621 4.975.689 7.47.183 6.636-.798 11.624-1.585 15.633l-.268 1.378c-1.227 6.418-2.002 13.21-2.302 20.19a1.027 1.027 0 0 1-.67.92 49.384 49.384 0 0 1-10.033 2.575c-2.32.341-4.674.51-7.042.51Zm-16.714-4.953c7.692 2.699 15.777 3.533 23.456 2.408a47.32 47.32 0 0 0 8.978-2.235c.324-6.837 1.098-13.495 2.306-19.798l.27-1.389c.808-4.112 1.724-8.774 1.548-15.18a56.343 56.343 0 0 0-.623-6.937l-2.904-3.634a4.953 4.953 0 0 1-2.529.752c-2.803-.026-5.296-2.701-6.187-6.499a18.122 18.122 0 0 0-3.845 1.25c-3.862 1.758-7.298 5.242-9.941 10.075-3.299 6.037-3.652 10.96-4.061 16.66-.399 5.549-.85 11.839-4.335 20.04a60.357 60.357 0 0 1-2.133 4.487Z" fill="#49194F"/><path d="M249.956 87.322a9.062 9.062 0 0 0 12.812-.35c3.441-3.636 3.284-9.374-.35-12.816a9.062 9.062 0 0 0-12.812.35 9.066 9.066 0 0 0 .35 12.816Z" fill="#fff"/><path d="M256.178 90.833a10.02 10.02 0 0 1-6.931-2.764c-4.04-3.828-4.215-10.229-.39-14.27a10.019 10.019 0 0 1 7.052-3.151c2.695-.095 5.256.907 7.213 2.76a10.03 10.03 0 0 1 3.15 7.055 10.038 10.038 0 0 1-2.759 7.216 10.036 10.036 0 0 1-7.053 3.151c-.092.002-.187.003-.282.003Zm-5.516-4.259a7.959 7.959 0 0 0 5.743 2.198 7.985 7.985 0 0 0 5.615-2.509 7.986 7.986 0 0 0 2.196-5.744 7.98 7.98 0 0 0-2.507-5.615 7.974 7.974 0 0 0-5.742-2.198 7.975 7.975 0 0 0-5.615 2.509c-3.045 3.216-2.905 8.312.31 11.359Z" fill="#49194F"/><path d="M245.786 83.972a2.483 2.483 0 1 0 4.878-.929 2.483 2.483 0 0 0-4.878.929Z" fill="#fff"/><path d="M249.579 82.649c-.274-.673-.199-1.43-.146-2.156.118-1.614.103-3.24-.045-4.851 1.967.23 3.96.225 5.925-.015 1.457-.179 2.945-.485 4.376-.162 1.031.233 1.96.777 2.924 1.21.964.433 2.04.763 3.071.528a12.391 12.391 0 0 0-6.961-6.305c-.78-.277-1.596-.478-2.422-.496-1.066-.023-2.117.254-3.116.626-3.01 1.124-5.694 3.17-7.451 5.861-.471.723-.886 1.517-.952 2.377-.035.455.044.925.239 1.337.134.282.458.844.822.816.428-.031.829-.066 1.259-.001.437.066.866.195 1.265.385.447.21.86.496 1.212.846Z" fill="#49194F"/><path d="m261.086 109.511 2.199-1.467s-.112-1.858 0-2.487c.111-.628.682-1.591.739-2.024.057-.432.741-4.202 1.027-4.43.286-.228.913.057 1.027.4.114.341-.228 4.03-.228 4.03s4.74-8.029 5.14-8.029c.4 0 1.085.4.857.914-.228.514-3.655 5.666-3.311 6.089.342.422 5.423-5.232 5.823-5.232.4 0 .799.686.628 1.028-.172.344-4.91 5.311-4.74 5.597.172.286 5.367-3.656 5.823-3.484.458.172.628.857.458 1.199-.172.344-5.368 3.427-5.31 3.884.058.457 4.624-1.371 4.854-1.257.228.114.342.8-.058 1.086-.4.285-4.225 1.657-4.568 2.056-.342.4-2.226 2.171-3.026 2.571-.799.4-2.398.4-2.626.686a488.2 488.2 0 0 1-2.57 3.026l-2.138-4.156Z" fill="#fff"/><path d="M263.226 114.698a1.03 1.03 0 0 1-.915-.558l-2.14-4.158a1.03 1.03 0 0 1 .345-1.327l1.714-1.144c-.026-.654-.046-1.634.044-2.132.079-.454.296-.947.487-1.383.091-.203.226-.511.247-.614.003-.024.616-4.453 1.403-5.083.379-.301.895-.383 1.417-.23.462.136 1.026.5 1.23 1.11.017.051.038.113.053.244 3.007-4.948 3.316-4.948 3.882-4.948.642 0 1.332.371 1.677.902.289.445.333.978.119 1.459-.069.152-.205.386-.551.946 1.377-1.365 1.638-1.537 2.122-1.537.542 0 1.062.321 1.396.86.339.548.397 1.168.154 1.657-.077.152-.18.294-.669.845.56-.274.854-.282 1.193-.155.47.177.841.556 1.041 1.067.208.529.2 1.11-.023 1.555-.144.286-.331.461-1.325 1.13a.99.99 0 0 1 .409.119c.433.216.721.691.769 1.271.051.639-.207 1.226-.691 1.572-.241.172-.671.353-1.94.867-.763.309-2.161.875-2.51 1.095-.481.52-2.335 2.273-3.281 2.747-.549.275-1.244.388-1.857.487-.187.03-.427.069-.578.103-.577.688-2.44 2.87-2.44 2.87a1.024 1.024 0 0 1-.782.363Zm-.804-4.841 1.016 1.976c.661-.775 1.429-1.679 1.554-1.835.36-.45.923-.54 1.703-.668.422-.069.997-.162 1.265-.296.589-.294 2.353-1.906 2.704-2.319a1.46 1.46 0 0 1 .219-.203 1.263 1.263 0 0 1-.182-.095 1.16 1.16 0 0 1-.504-.788 1.04 1.04 0 0 1 .118-.679c-.089-.01-.178-.01-.27-.032a1.095 1.095 0 0 1-.68-.489c-.213-.356-.284-.615-.004-1.121-.338.212-.567.258-.83.249a1.16 1.16 0 0 1-.795-.403 1.236 1.236 0 0 1-.227-.395c-.259.434-.519.869-.77 1.298a1.031 1.031 0 0 1-1.782-.015c-.076.242-.189.498-.313.782-.137.313-.309.702-.346.91-.056.315-.036 1.41.014 2.245.022.366-.153.715-.456.918l-1.434.96Z" fill="#49194F"/><path d="M230.173 104.589c.335 1.754.792 3.015.833 3.129 3.408 9.26 6.941 18.862 13.536 20.066 2.837.518 5.132-.714 8.87-2.744 6.564-3.562 10.322-8.613 12.158-11.524l-3.487-5.737-14.158 10.444c0-.441-7.499-24.6-14.704-22.598-.52.145-1.741.55-2.565 1.588-1.523 1.923-.96 4.879-.483 7.376Z" fill="#fff"/><path d="M229.679 108.025c.336 1.754.793 3.015.834 3.129 3.408 9.26 6.94 18.863 13.536 20.066 2.836.518 5.131-.714 8.87-2.744 6.564-3.562 10.322-8.614 12.158-11.524l-3.487-5.737-14.158 10.444c0-.441-7.5-24.6-14.705-22.598-.519.145-1.74.55-2.564 1.589-1.523 1.922-.96 4.878-.484 7.375Z" fill="#C7A6CC"/><path d="M245.836 128.931a7.98 7.98 0 0 1-1.478-.137c-7.172-1.308-10.804-11.177-14.316-20.721-.054-.144-.532-1.468-.879-3.293-.503-2.636-1.129-5.915.688-8.208.911-1.149 2.187-1.69 3.097-1.941 1.464-.404 2.985-.024 4.519 1.144 5.167 3.928 9.612 16.211 11.022 20.751l12.984-9.578a1.026 1.026 0 0 1 1.49.294l3.488 5.737c.203.334.199.754-.01 1.084-3.185 5.049-7.52 9.157-12.537 11.88-3.213 1.743-5.507 2.988-8.068 2.988Zm-11.753-32.395a2.13 2.13 0 0 0-.587.081c-.87.24-1.593.679-2.034 1.235-1.232 1.554-.725 4.205-.279 6.543.323 1.691.77 2.915.789 2.968 3.313 9.003 6.738 18.311 12.754 19.408 2.498.454 4.642-.707 8.194-2.636 4.53-2.458 8.473-6.128 11.435-10.635l-2.569-4.225-13.253 9.775a1.027 1.027 0 0 1-1.629-.684c-.295-1.305-5.663-17.935-11.199-21.302-.578-.353-1.114-.528-1.622-.528ZM259.13 78.266a.841.841 0 1 0 1.639-.383.841.841 0 0 0-1.639.383ZM253.069 80.133a.84.84 0 1 0 1.64-.38.84.84 0 0 0-1.64.38ZM258.19 83.315a.515.515 0 0 1-.264-.958c.349-.207.711-.423.954-.701a.484.484 0 0 0 .035-.046c-.424-.514-.88-.99-1.37-1.429a.514.514 0 0 1 .686-.768c.55.492 1.059 1.028 1.517 1.594.049.06.105.133.151.234.154.339.066.736-.242 1.09-.352.404-.803.674-1.203.911a.52.52 0 0 1-.264.073ZM254.954 84.55c.09-.251.374-.44.643-.339.274.1.555.173.839.227.246.038.495.064.743.067.27.003.517.262.494.534a.526.526 0 0 1-.535.495 5.537 5.537 0 0 1-1.846-.34c-.25-.094-.435-.373-.338-.644Z" fill="#49194F"/><path d="M255.616 81.917c-.071-.45-1.342-.802-2.291-.259-.443.254-.969.791-.88 1.13.106.396 1.042.436 1.722.243.658-.189 1.511-.719 1.449-1.114ZM263.307 79.29c-.072-.45-1.342-.803-2.291-.259-.442.254-.97.791-.881 1.13.106.396 1.043.436 1.723.242.658-.188 1.511-.718 1.449-1.113Z" fill="#C7A6CC" opacity=".49"/></svg>