<svg aria-hidden="true" style="position: absolute; width: 0; height: 0; overflow: hidden;" version="1.1" xmlns="http://www.w3.org/2000/svg" xmlns:xlink="http://www.w3.org/1999/xlink">
<defs>
<symbol id="icon-close" viewBox="0 0 30 32">
<path stroke-linejoin="miter" stroke-linecap="round" stroke-miterlimit="4" stroke-width="3.5556" d="M1.781 28.885l25.771-25.771M27.552 28.885l-25.771-25.771"></path>
</symbol>
<symbol id="icon-instagram" viewBox="0 0 28 28">
<path stroke-width="2.4706" stroke-miterlimit="4" stroke-linecap="round" stroke-linejoin="round" d="M20.949 7.051v0.015M1.647 7.824c0-1.638 0.651-3.209 1.809-4.367s2.729-1.809 4.367-1.809h12.353c1.638 0 3.209 0.651 4.367 1.809s1.809 2.729 1.809 4.367v12.353c0 1.638-0.651 3.209-1.809 4.367s-2.729 1.809-4.367 1.809h-12.353c-1.638 0-3.209-0.651-4.367-1.809s-1.809-2.729-1.809-4.367v-12.353zM9.368 14c0 1.229 0.488 2.407 1.357 3.276s2.047 1.357 3.276 1.357c1.229 0 2.407-0.488 3.276-1.357s1.357-2.047 1.357-3.276c0-1.229-0.488-2.407-1.357-3.276s-2.047-1.357-3.276-1.357c-1.229 0-2.407 0.488-3.276 1.357s-1.357 2.047-1.357 3.276z"></path>
</symbol>
<symbol id="icon-fizikc" viewBox="0 0 31 28">
<path d="M0 0h30.8v28h-30.8v-28z"></path>
</symbol>
<symbol id="icon-opencourse" viewBox="0 0 171 28">
<path d="M0 0h170.732v28h-170.732v-28z"></path>
</symbol>
<symbol id="icon-leaf" viewBox="0 0 28 28">
<path d="M2.663 5.798c-0.968 0.613-1.582 1.654-1.649 2.798v10.792c0.067 1.144 0.681 2.185 1.649 2.798l9.683 5.416c1.040 0.51 2.257 0.51 3.298 0l9.693-5.416c0.968-0.613 1.582-1.654 1.649-2.798v-10.792c-0.067-1.144-0.681-2.185-1.649-2.798l-9.683-5.416c-1.040-0.51-2.257-0.51-3.298 0l-9.693 5.416z"></path>
<path d="M23.948 11.314c-5.376 0-9.393 4.457-9.393 9.923v0.23h-1.079v-0.23c0-5.466-3.997-9.903-9.413-9.923 0 0.34 0 0.69 0 0.999-0.022 4.135 2.528 7.849 6.395 9.313 1.149 0.421 2.363 0.638 3.587 0.64 1.234-0.002 2.458-0.218 3.617-0.64 3.861-1.47 6.406-5.181 6.386-9.313-0.050-0.32-0.070-0.66-0.1-0.999z"></path>
<path d="M14.005 11.734c1.656 0 2.998-1.342 2.998-2.998s-1.342-2.998-2.998-2.998c-1.656 0-2.998 1.342-2.998 2.998s1.342 2.998 2.998 2.998z"></path>
</symbol>
<symbol id="icon-minutephiziks" viewBox="0 0 28 28">
<path d="M0 0h28v28h-28v-28z"></path>
</symbol>
<symbol id="icon-logo" viewBox="0 0 80 32">
<path fill="#ff8a1d" style="fill: var(--color2, #ff8a1d)" d="M32 0h-32v32h32v-32z"></path>
<path fill="#111518" style="fill: var(--color3, #111518)" d="M14.394 15.905c-0.094-0.608-1.117-1.146-2.763-1.449-0.020-0.006-0.119-0.024-0.218-0.041l-0.073-0.010c-0.042-0.005-0.080-0.013-0.116-0.023l0.006 0.001c-0.005-0.004 0.017-0.076 0.049-0.161 0.239-0.634 0.423-1.293 0.501-1.793 0.067-0.427 0.075-0.833 0.020-1.103-0.029-0.135-0.074-0.254-0.135-0.364l0.003 0.007c-0.080-0.134-0.205-0.234-0.353-0.281l-0.005-0.001c-0.053-0.015-0.087-0.020-0.181-0.020-0.13 0-0.254 0.027-0.367 0.074l0.006-0.002c-0.578 0.219-1.336 0.896-2.108 1.887l-0.129 0.166-0.133-0.167c-0.547-0.69-1.072-1.22-1.545-1.556-0.296-0.211-0.56-0.338-0.792-0.384-0.048-0.008-0.103-0.013-0.159-0.013-0.057 0-0.113 0.005-0.168 0.014l0.006-0.001c-0.42 0.103-0.597 0.591-0.512 1.415 0.058 0.572 0.254 1.32 0.555 2.122 0.028 0.075 0.053 0.143 0.055 0.149 0.002 0.009-0.036 0.018-0.156 0.037-1.569 0.254-2.652 0.723-2.939 1.274-0.049 0.084-0.078 0.185-0.078 0.293 0 0.015 0.001 0.031 0.002 0.046l-0-0.002c0.007 0.155 0.051 0.267 0.162 0.409 0.347 0.444 1.221 0.821 2.452 1.056 0.139 0.026 0.324 0.059 0.412 0.072 0.087 0.013 0.16 0.028 0.16 0.031 0 0.004-0.020 0.055-0.043 0.116-0.023 0.060-0.084 0.227-0.135 0.371-0.483 1.374-0.597 2.422-0.322 2.924 0.045 0.083 0.16 0.201 0.235 0.239 0.288 0.151 0.675 0.068 1.162-0.251 0.502-0.327 1.124-0.936 1.678-1.644l0.093-0.118c0.003-0.004 0.074 0.078 0.156 0.183 0.505 0.641 1.029 1.175 1.475 1.503 0.377 0.276 0.715 0.422 0.985 0.422 0.169 0 0.288-0.042 0.395-0.139 0.325-0.294 0.382-0.98 0.167-1.995-0.082-0.393-0.208-0.821-0.389-1.333-0.023-0.055-0.053-0.145-0.082-0.235l-0.009-0.034c0.002-0.002 0.076-0.016 0.165-0.030 1.097-0.181 1.972-0.474 2.514-0.843 0.112-0.076 0.299-0.257 0.363-0.351 0.112-0.154 0.155-0.314 0.131-0.469zM14.121 16.158c-0.031 0.086-0.096 0.181-0.18 0.266-0.305 0.309-0.976 0.591-1.861 0.781-0.382 0.083-0.933 0.172-0.949 0.156-0.028-0.054-0.078-0.168-0.126-0.283l-0.023-0.063c-0.169-0.414-0.297-0.697-0.432-0.976l0.051 0.117-0.071-0.149 0.048-0.1c0.121-0.245 0.323-0.698 0.488-1.091 0.065-0.156 0.080-0.185 0.096-0.185 0.035 0 0.411 0.062 0.638 0.107 0.499 0.096 0.91 0.207 1.285 0.348 0.611 0.228 0.985 0.513 1.055 0.801 0.006 0.031 0.010 0.067 0.010 0.103 0 0.061-0.010 0.119-0.029 0.173l0.001-0.004zM11.617 20.515c-0.046 0.304-0.177 0.499-0.374 0.561-0.047 0.012-0.102 0.019-0.158 0.019-0.054 0-0.107-0.006-0.158-0.019l0.005 0.001c-0.414-0.101-0.985-0.549-1.616-1.275-0.199-0.229-0.596-0.725-0.624-0.78-0.007-0.015 0.011-0.044 0.114-0.181 0.208-0.279 0.427-0.601 0.643-0.946l0.078-0.124 0.088-0.007c0.049-0.002 0.173-0.010 0.278-0.015 0.316-0.015 0.61-0.046 0.942-0.095 0.046-0.008 0.101-0.015 0.158-0.018l0.004-0c0.017 0.017 0.208 0.552 0.301 0.846 0.198 0.626 0.315 1.18 0.339 1.606 0.003 0.107-0.006 0.332-0.021 0.428zM11.587 12.248c-0.052 0.373-0.138 0.752-0.277 1.21-0.082 0.275-0.296 0.886-0.315 0.904-0.040-0.001-0.077-0.006-0.114-0.014l0.004 0.001c-0.301-0.053-0.649-0.089-1.189-0.12l-0.18-0.011-0.125-0.195c-0.068-0.108-0.256-0.382-0.418-0.612-0.16-0.228-0.289-0.421-0.287-0.427 0.012-0.030 0.302-0.401 0.476-0.608 0.697-0.834 1.34-1.349 1.788-1.435 0.358-0.069 0.585 0.139 0.651 0.597 0.016 0.107 0.005 0.557-0.015 0.709zM10.83 14.765c-0.097 0.243-0.241 0.558-0.382 0.837l-0.067 0.132-0.041-0.096c-0.096-0.212-0.189-0.386-0.291-0.555l0.013 0.023c0.012 0.030-0.053-0.080-0.118-0.191l-0.079-0.146-0.144-0.246-0.026-0.043h0.031c0.159 0 0.981 0.081 1.135 0.112 0.035 0.006 0.035 0.006-0.031 0.172zM10.88 17.387c-0.11 0.024-0.256 0.048-0.404 0.065l-0.025 0.002c-0.206 0.024-0.753 0.060-0.753 0.050 0.206-0.313 0.418-0.681 0.608-1.063l0.029-0.064 0.044-0.096 0.030 0.057c0.076 0.146 0.475 1.010 0.477 1.034 0.001 0.006-0.003 0.013-0.006 0.015zM10.025 16.397c-0.167 0.315-0.455 0.819-0.609 1.067l-0.036 0.059-0.058 0.007c-0.263 0.026-0.811 0.030-1.208 0.010-0.144-0.007-0.302-0.014-0.349-0.016l-0.087-0.002-0.083-0.127c-0.147-0.22-0.395-0.658-0.591-1.037l-0.189-0.366 0.209-0.397c0.212-0.405 0.398-0.732 0.555-0.98l0.087-0.138 0.070-0.011c0.182-0.027 0.348-0.034 0.823-0.034 0.428 0.002 0.7 0.011 0.799 0.027 0.026 0.005 0.039 0.025 0.156 0.215 0.173 0.276 0.37 0.625 0.554 0.982l0.039 0.085c0.051 0.106 0.1 0.203 0.105 0.218 0.007 0.012 0.012 0.027 0.014 0.042l0 0.001c0.002 0.010-0.087 0.187-0.2 0.396zM8.877 14.177c-0.245-0.006-0.451-0.006-0.688 0-0.186 0.005-0.339 0.008-0.34 0.007-0.007-0.007 0.293-0.458 0.512-0.77 0.134-0.192 0.17-0.236 0.179-0.226 0.063 0.064 0.702 0.988 0.691 0.997-0.001 0.001-0.16-0.003-0.353-0.008zM9.141 17.941c-0.152 0.236-0.58 0.842-0.605 0.859-0.011 0.005-0.059-0.055-0.203-0.259-0.109-0.15-0.274-0.393-0.436-0.638l-0.066-0.106c0.056 0.001 0.109 0.003 0.161 0.007l-0.010-0.001c0.171 0.009 1.209 0.002 1.235-0.006 0.008-0.004 0.016-0.004 0.016-0.001-0.035 0.060-0.066 0.108-0.098 0.154l0.006-0.009zM8.080 13.402c-0.131 0.187-0.304 0.458-0.45 0.701l-0.068 0.115-0.166 0.007c-0.421 0.017-0.814 0.053-1.201 0.108l0.063-0.007-0.171 0.025c-0.022 0.002-0.053-0.075-0.187-0.451-0.47-1.333-0.591-2.33-0.331-2.748 0.096-0.154 0.248-0.23 0.437-0.219 0.517 0.029 1.308 0.692 2.237 1.877l0.142 0.181-0.085 0.108c-0.048 0.059-0.146 0.195-0.222 0.302zM8.267 19.164c-0.984 1.286-1.867 1.999-2.389 1.931-0.397-0.051-0.546-0.513-0.424-1.323 0.077-0.521 0.272-1.19 0.56-1.931l0.082-0.211 0.037 0.005c0.020 0.003 0.103 0.016 0.184 0.027 0.289 0.045 0.639 0.079 0.994 0.095l0.022 0.001 0.205 0.011c0 0.002 0.052 0.083 0.115 0.185 0.21 0.334 0.497 0.749 0.677 0.98 0.063 0.082 0.071 0.054-0.064 0.23zM7.148 14.845l-0.196 0.346c-0.107 0.189-0.211 0.396-0.245 0.486-0.009 0.025-0.020 0.047-0.023 0.047-0.007 0-0.171-0.324-0.255-0.507-0.108-0.235-0.261-0.608-0.253-0.616 0.011-0.011 0.414-0.064 0.63-0.084 0.112-0.010 0.434-0.027 0.517-0.027h0.049l-0.068 0.101c-0.037 0.053-0.108 0.168-0.156 0.253zM7.2 17.499c-0.189-0.011-0.41-0.029-0.58-0.049-0.176-0.020-0.432-0.059-0.44-0.066s0.074-0.223 0.16-0.419c0.124-0.285 0.334-0.712 0.347-0.702 0.003 0.004 0.028 0.057 0.055 0.119 0.104 0.235 0.422 0.815 0.564 1.027 0.036 0.052 0.064 0.097 0.063 0.099-0.062-0.001-0.121-0.004-0.179-0.008l0.010 0.001zM6.445 16.219c-0.15 0.278-0.311 0.625-0.453 0.981l-0.026 0.073-0.031 0.080-0.031-0.003c-0.299-0.040-0.518-0.075-0.734-0.115l0.093 0.014c-0.894-0.166-1.583-0.407-1.98-0.691-0.107-0.080-0.199-0.173-0.276-0.277l-0.003-0.004c-0.258-0.413 0.043-0.819 0.854-1.155 0.452-0.187 1.106-0.355 1.841-0.473 0.119-0.019 0.222-0.035 0.228-0.035s0.022 0.031 0.037 0.069c0.061 0.155 0.259 0.619 0.318 0.748 0.035 0.076 0.112 0.231 0.172 0.346s0.11 0.21 0.11 0.212c0.001 0.001-0.053 0.105-0.119 0.23z"></path>
<path fill="#111518" style="fill: var(--color3, #111518)" d="M9.116 15.843c-0.052-0.237-0.24-0.418-0.475-0.461l-0.004-0.001c-0.031-0.006-0.067-0.009-0.104-0.009-0.117 0-0.227 0.033-0.32 0.090l0.003-0.002c-0.121 0.076-0.224 0.218-0.265 0.36-0.026 0.091-0.023 0.269 0.005 0.354 0.072 0.222 0.229 0.37 0.447 0.422 0.087 0.021 0.224 0.013 0.315-0.017 0.193-0.064 0.339-0.224 0.392-0.427 0.022-0.082 0.026-0.227 0.006-0.311z"></path>
<path fill="#3c1d00" style="fill: var(--color4, #3c1d00)" d="M16.768 19.422h0.896v-7.245h-0.896v-0.845h7.131v2.381h-1.485v-1.459h-2.675v2.893h1.69v-0.768h0.947v2.458h-0.947v-0.768h-1.69v3.277h2.778v-1.715h1.484v2.637h-7.232v-0.845zM24.822 19.422h0.704l1.766-2.342-1.856-2.675h-0.576v-0.845h3.635v0.845h-0.768l1.152 1.664h0.077l1.19-1.664h-0.73v-0.845h2.547v0.845h-0.704l-1.779 2.342 1.933 2.675h0.576v0.845h-3.674v-0.845h0.768l-1.19-1.664h-0.077l-1.178 1.664h0.73v0.845h-2.547v-0.845zM35.745 20.42c-0.538 0-1.011-0.090-1.421-0.269-0.403-0.18-0.744-0.431-1.022-0.74l-0.002-0.003c-0.269-0.314-0.483-0.684-0.62-1.090l-0.007-0.023c-0.13-0.404-0.205-0.869-0.205-1.351 0-0.015 0-0.031 0-0.046l-0 0.002c0-0.563 0.090-1.058 0.269-1.485 0.179-0.435 0.422-0.802 0.73-1.101 0.307-0.29 0.673-0.521 1.079-0.671l0.022-0.007c0.399-0.146 0.86-0.23 1.341-0.23 0.010 0 0.020 0 0.031 0h-0.002c0.785 0 1.387 0.162 1.805 0.486 0.427 0.324 0.64 0.734 0.64 1.229 0 0.324-0.090 0.585-0.269 0.781-0.179 0.188-0.427 0.282-0.742 0.282s-0.559-0.081-0.73-0.243c-0.171-0.171-0.256-0.393-0.256-0.666 0-0.222 0.055-0.405 0.166-0.55 0.119-0.145 0.252-0.252 0.397-0.32v-0.077c-0.073-0.023-0.176-0.050-0.281-0.072l-0.026-0.005c-0.123-0.025-0.264-0.039-0.408-0.039-0.019 0-0.037 0-0.055 0.001l0.003-0c-0.521 0-0.926 0.166-1.216 0.499-0.29 0.324-0.435 0.794-0.435 1.408v1.331c0 0.563 0.132 0.994 0.397 1.293 0.265 0.29 0.631 0.435 1.101 0.435 0.478 0 0.858-0.111 1.139-0.333s0.482-0.482 0.602-0.781l0.717 0.422c-0.077 0.213-0.188 0.435-0.333 0.666-0.148 0.243-0.326 0.45-0.534 0.624l-0.004 0.003c-0.222 0.188-0.486 0.341-0.794 0.461s-0.666 0.179-1.075 0.179zM41.033 12.676c-0.358 0-0.64-0.098-0.845-0.294-0.196-0.196-0.294-0.461-0.294-0.794v-0.064c0-0.333 0.098-0.597 0.295-0.794 0.205-0.196 0.486-0.294 0.845-0.294s0.636 0.098 0.832 0.294c0.204 0.196 0.307 0.461 0.307 0.794v0.064c0 0.333-0.102 0.597-0.307 0.794-0.196 0.196-0.474 0.294-0.832 0.294zM39.305 19.422h0.768v-4.57l-0.768-0.166v-0.73l2.714-0.55v6.016h0.768v0.845h-3.482v-0.845zM45.769 20.395c-0.512 0-0.892-0.111-1.139-0.333-0.239-0.23-0.358-0.567-0.358-1.011v-4.595h-0.896v-0.896h0.346c0.282 0 0.486-0.060 0.614-0.179 0.137-0.128 0.265-0.316 0.384-0.563l0.538-1.114h0.96v1.856h1.472v0.896h-1.472v4.941h1.472v0.755c-0.137 0.060-0.38 0.115-0.73 0.166s-0.747 0.077-1.19 0.077zM51.657 20.42c-0.529 0-0.998-0.085-1.408-0.256-0.401-0.178-0.742-0.425-1.022-0.728l-0.002-0.002c-0.269-0.314-0.483-0.684-0.62-1.090l-0.007-0.023c-0.138-0.412-0.218-0.886-0.218-1.378 0-0.015 0-0.030 0-0.045l-0 0.002c0-0.538 0.073-1.024 0.218-1.459 0.154-0.435 0.367-0.802 0.64-1.101 0.275-0.291 0.607-0.525 0.979-0.684l0.019-0.007c0.393-0.162 0.828-0.243 1.306-0.243s0.909 0.073 1.293 0.218c0.381 0.142 0.706 0.355 0.972 0.627l0 0c0.272 0.267 0.486 0.592 0.621 0.955l0.006 0.018c0.145 0.384 0.218 0.811 0.218 1.28v0.435h-4.211v0.512c0 0.572 0.149 1.003 0.448 1.293s0.695 0.435 1.19 0.435c0.461 0 0.832-0.102 1.114-0.307 0.282-0.213 0.482-0.469 0.602-0.768l0.704 0.422c-0.077 0.213-0.188 0.431-0.333 0.653s-0.333 0.427-0.563 0.614c-0.239 0.182-0.514 0.334-0.811 0.441l-0.021 0.007c-0.324 0.119-0.695 0.179-1.114 0.179zM50.441 16.132h2.202v-0.179c0-0.614-0.098-1.045-0.294-1.293s-0.465-0.371-0.806-0.371-0.61 0.124-0.806 0.371c-0.196 0.247-0.294 0.678-0.294 1.293v0.179zM55.606 19.422h0.896v-7.245h-0.896v-0.845h7.13v2.381h-1.485v-1.459h-2.675v2.893h1.69v-0.768h0.947v2.458h-0.947v-0.768h-1.69v3.277h2.778v-1.715h1.485v2.637h-7.232v-0.845zM66.581 20.42c-0.41 0-0.781-0.081-1.114-0.243-0.334-0.179-0.611-0.42-0.827-0.71l-0.005-0.007c-0.23-0.307-0.41-0.674-0.538-1.101-0.119-0.435-0.179-0.917-0.179-1.446s0.060-1.007 0.179-1.434c0.128-0.435 0.307-0.806 0.538-1.114 0.218-0.295 0.497-0.533 0.819-0.698l0.013-0.006c0.333-0.171 0.704-0.256 1.114-0.256 0.239 0 0.452 0.034 0.64 0.102 0.196 0.060 0.367 0.141 0.512 0.243 0.15 0.099 0.277 0.218 0.381 0.355l0.003 0.004c0.102 0.137 0.183 0.277 0.243 0.422h0.064v-2.547l-0.768-0.166v-0.73l2.714-0.55v8.435l0.768 0.166v0.73l-2.714 0.55v-1.152h-0.064c-0.119 0.299-0.333 0.567-0.64 0.806-0.299 0.23-0.678 0.346-1.139 0.346zM67.234 19.243c0.341 0 0.623-0.107 0.845-0.32 0.23-0.213 0.346-0.499 0.346-0.858v-2.317c0-0.358-0.115-0.644-0.346-0.858-0.222-0.213-0.503-0.32-0.845-0.32-0.358 0-0.657 0.124-0.896 0.371s-0.358 0.61-0.358 1.088v1.754c0 0.478 0.119 0.841 0.358 1.088s0.538 0.371 0.896 0.371zM74.758 20.42c-0.819 0-1.399-0.205-1.741-0.614-0.333-0.418-0.499-1.041-0.499-1.869v-3.085l-0.768-0.166v-0.73l2.714-0.55v4.467c0 0.452 0.077 0.777 0.23 0.973 0.162 0.188 0.431 0.282 0.806 0.282 0.145 0 0.29-0.017 0.435-0.051 0.145-0.043 0.273-0.102 0.384-0.179 0.111-0.085 0.201-0.188 0.269-0.307 0.068-0.128 0.102-0.282 0.102-0.461v-3.277l-0.768-0.166v-0.73l2.714-0.55v5.568l0.768 0.166v0.73l-2.675 0.55v-1.267h-0.064c-0.119 0.341-0.333 0.64-0.64 0.896-0.307 0.247-0.73 0.371-1.267 0.371z"></path>
</symbol>
<symbol id="icon-menu" viewBox="0 0 32 32">
<path d="M4 9v0c0 0.552 0.448 1 1 1h22c0.552 0 1-0.448 1-1s-0.448-1-1-1h-22c-0.552 0-1 0.448-1 1zM4 16v0c0 0.552 0.448 1 1 1h22c0.552 0 1-0.448 1-1s-0.448-1-1-1h-22c-0.552 0-1 0.448-1 1zM15 23v0c0 0.552 0.448 1 1 1h11c0.552 0 1-0.448 1-1s-0.448-1-1-1h-11c-0.552 0-1 0.448-1 1z"></path>
</symbol>
<symbol id="icon-arrow-right" viewBox="0 0 54 32">
<path stroke-linejoin="round" stroke-linecap="round" stroke-miterlimit="4" stroke-width="3.3684" d="M1.684 16h50.526M52.211 16l-14.436 14.316M52.211 16l-14.436-14.316"></path>
</symbol>
<symbol id="icon-arrow-left" viewBox="0 0 54 32">
<path stroke-linejoin="round" stroke-linecap="round" stroke-miterlimit="4" stroke-width="3.3684" d="M1.684 16h50.526M1.684 16l14.436 14.316M1.684 16l14.436-14.316"></path>
</symbol>
<symbol id="icon-arrow" viewBox="0 0 32 32">
<path stroke-linejoin="round" stroke-linecap="round" stroke-miterlimit="4" stroke-width="2.3704" d="M1.185 13.037v17.778l14.815-11.852 14.815 11.852v-17.778l-14.815-11.852-14.815 11.852z"></path>
</symbol>
</defs>
</svg>
